<svg width="80" height="80" viewBox="0 0 80 80" fill="none" xmlns="http://www.w3.org/2000/svg">
<path d="M1 10.4985C1 5.55278 5.55228 1.0005 10.498 1.0005L68.9986 1C74.4777 1 78.9996 5.58215 78.9996 10.4979L78.9948 58.6L59.5714 78.9952H10.498C5.55228 78.9952 1 74.443 1 69.4973V10.4985Z" stroke="#3F8FC1" stroke-width="2"/>
<path fill-rule="evenodd" clip-rule="evenodd" d="M59 65C59 61.6863 61.6863 59 65 59H79L59 79V65Z" stroke="#3F8FC1" stroke-width="2" stroke-linecap="round" stroke-linejoin="round"/>
<path fill-rule="evenodd" clip-rule="evenodd" d="M19 24L14.2977 26.4721L15.1958 21.2361L11.3915 17.5279L16.6489 16.7639L19 12L21.3511 16.7639L26.6085 17.5279L22.8042 21.2361L23.7023 26.4721L19 24Z" fill="#F27A76"/>
<mask id="path-4-inside-1" fill="white">
<path fill-rule="evenodd" clip-rule="evenodd" d="M69 19C69 18.4477 68.5523 18 68 18H34C33.4477 18 33 18.4477 33 19C33 19.5523 33.4477 20 34 20H68C68.5523 20 69 19.5523 69 19Z"/>
</mask>
<path d="M68 16H34V20H68V16ZM34 22H68V18H34V22ZM68 22C69.6569 22 71 20.6569 71 19H67C67 18.4477 67.4477 18 68 18V22ZM31 19C31 20.6569 32.3431 22 34 22V18C34.5523 18 35 18.4477 35 19H31ZM34 16C32.3431 16 31 17.3432 31 19H35C35 19.5523 34.5523 20 34 20V16ZM68 20C67.4477 20 67 19.5523 67 19H71C71 17.3432 69.6569 16 68 16V20Z" fill="#1A3F54" mask="url(#path-4-inside-1)"/>
<mask id="path-6-inside-2" fill="white">
<path fill-rule="evenodd" clip-rule="evenodd" d="M59 40C59 39.4477 58.5523 39 58 39H34C33.4477 39 33 39.4477 33 40C33 40.5523 33.4477 41 34 41H58C58.5523 41 59 40.5523 59 40Z"/>
</mask>
<path d="M58 37H34V41H58V37ZM34 43H58V39H34V43ZM58 43C59.6569 43 61 41.6569 61 40H57C57 39.4477 57.4477 39 58 39V43ZM31 40C31 41.6569 32.3431 43 34 43V39C34.5523 39 35 39.4477 35 40H31ZM34 37C32.3431 37 31 38.3432 31 40H35C35 40.5523 34.5523 41 34 41V37ZM58 41C57.4477 41 57 40.5523 57 40H61C61 38.3432 59.6569 37 58 37V41Z" fill="#1A3F54" mask="url(#path-6-inside-2)"/>
<mask id="path-8-inside-3" fill="white">
<path fill-rule="evenodd" clip-rule="evenodd" d="M49 60C49 59.4477 48.5523 59 48 59H34C33.4477 59 33 59.4477 33 60C33 60.5523 33.4477 61 34 61H48C48.5523 61 49 60.5523 49 60Z"/>
</mask>
<path d="M48 57H34V61H48V57ZM34 63H48V59H34V63ZM48 63C49.6569 63 51 61.6569 51 60H47C47 59.4477 47.4477 59 48 59V63ZM31 60C31 61.6569 32.3431 63 34 63V59C34.5523 59 35 59.4477 35 60H31ZM34 57C32.3431 57 31 58.3432 31 60H35C35 60.5523 34.5523 61 34 61V57ZM48 61C47.4477 61 47 60.5523 47 60H51C51 58.3432 49.6569 57 48 57V61Z" fill="#1A3F54" mask="url(#path-8-inside-3)"/>
<path fill-rule="evenodd" clip-rule="evenodd" d="M19 44L14.2977 46.4721L15.1958 41.2361L11.3915 37.5279L16.6489 36.7639L19 32L21.3511 36.7639L26.6085 37.5279L22.8042 41.2361L23.7023 46.4721L19 44Z" fill="#F27A76"/>
<path fill-rule="evenodd" clip-rule="evenodd" d="M19 64L14.2977 66.4721L15.1958 61.2361L11.3915 57.5279L16.6489 56.7639L19 52L21.3511 56.7639L26.6085 57.5279L22.8042 61.2361L23.7023 66.4721L19 64Z" fill="#F27A76"/>
</svg>
