<svg width="80" height="80" viewBox="0 0 80 80" fill="none" xmlns="http://www.w3.org/2000/svg">
<path fill-rule="evenodd" clip-rule="evenodd" d="M25.8329 53.3333L22.1676 57.2493L20.5856 55.5827C20.0843 55 19.1696 55 18.5869 55.498C18.0042 55.9993 18.0042 56.914 18.5023 57.4967L21.0869 60.3287C21.3376 60.5794 21.7542 60.7454 22.0863 60.7454C22.5029 60.7454 22.835 60.5794 23.0856 60.3287L27.8349 55.3287C28.3362 54.746 28.3362 53.9127 27.7503 53.33C27.249 52.7506 26.4156 52.7506 25.833 53.3333L25.8329 53.3333Z" fill="#F27A76"/>
<path fill-rule="evenodd" clip-rule="evenodd" d="M43.8348 52.1684L42.6694 51.9177C41.5854 51.6671 40.6708 50.8337 40.2541 49.7497C39.8374 48.6657 39.9221 47.5004 40.5048 46.501L41.0874 45.5017C41.7548 44.3364 41.5887 42.917 40.6708 41.9177L38.1708 39.4177C37.2528 38.4997 35.7555 38.2524 34.5868 39.001L33.5874 39.5837C32.5881 40.1664 31.4195 40.251 30.3388 39.7497C29.2548 39.3331 28.5061 38.4151 28.2554 37.3344L28.0048 36.1691C27.6728 34.8344 26.5041 33.9197 25.1728 33.9197H21.5888C20.2541 33.9197 19.0888 34.8377 18.7568 36.1691L18.3336 37.3344C18.083 38.4184 17.2496 39.3331 16.1656 39.7497C15.0816 40.1664 13.9163 40.0818 12.917 39.4991L11.9176 38.9164C10.7523 38.2491 9.33296 38.4151 8.33362 39.3331L5.83363 41.8331C4.91563 42.7511 4.66829 44.2484 5.41696 45.4171L5.99964 46.4164C6.58233 47.4157 6.66696 48.5844 6.16566 49.6651C5.74899 50.7491 4.83099 51.4977 3.75033 51.7484L2.58499 51.9991C1.33499 52.5004 0.416992 53.6657 0.416992 55.0004V58.5844C0.416992 59.9191 1.33499 61.0844 2.66633 61.4164L3.75033 61.667C4.83433 61.9177 5.74899 62.751 6.16566 63.835C6.58233 64.919 6.49769 66.0844 5.91501 67.0837L5.33233 68.083C4.66826 69.2516 4.91566 70.6677 5.83363 71.667L8.33362 74.167C9.25163 75.085 10.749 75.3324 11.9176 74.5837L12.917 74.001C13.9163 73.4183 15.085 73.3337 16.1656 73.835C17.2496 74.2517 17.9983 75.1697 18.249 76.2503L18.4996 77.4157C18.8316 78.7503 20.0003 79.665 21.3316 79.665L25.0002 79.6683C26.3349 79.6683 27.5002 78.7503 27.8322 77.4189L28.0828 76.2536C28.3335 75.1696 29.1668 74.2549 30.2508 73.8383C31.3348 73.4216 32.5002 73.5062 33.4995 74.0889L34.4988 74.6716C35.6642 75.3389 37.0835 75.1729 38.0828 74.2549L40.5828 71.7549C41.5008 70.8369 41.7482 69.3396 40.9995 68.1709L40.4168 67.1716C39.8341 66.1723 39.7495 65.0036 40.2508 63.9229C40.6675 62.8389 41.5855 62.0903 42.6661 61.8396L43.8315 61.5889C45.1661 61.2569 46.0808 60.0883 46.0808 58.7569L46.0841 55.0004C45.9994 53.6658 45.0847 52.5004 43.8347 52.1684L43.8348 52.1684ZM43.2488 58.5844L41.9988 59.001C40.0815 59.5023 38.4148 60.9184 37.6662 62.8357C36.9175 64.753 36.9989 66.8364 38.0828 68.5844L38.6655 69.7497L35.9995 72.3344L35.0002 71.7517C33.2489 70.7523 31.1655 70.5863 29.2515 71.335C27.4189 72.0837 26.0029 73.7503 25.5015 75.6677L25.0002 76.7517L21.3349 76.667L21.0842 75.5017C20.5829 73.5844 19.1669 71.9177 17.2496 71.169C16.4163 70.837 15.5829 70.6677 14.7496 70.6677C13.5842 70.6677 12.5002 70.9998 11.5009 71.5857L10.3356 72.1684L7.75092 69.5024L8.3336 68.5031C9.4176 66.7518 9.49893 64.6684 8.75027 62.7544C8.00157 60.8371 6.33493 59.5058 4.4176 59.0044L3.1676 58.5878L3.33362 54.9159L4.49895 54.6653C6.41628 54.164 8.08295 52.7479 8.83162 50.8306C9.58032 48.9979 9.49893 46.8299 8.41495 45.0819L7.83227 43.9166L10.4983 41.3319L11.4976 41.9146C13.2489 42.914 15.3323 43.08 17.2463 42.3313C19.0789 41.5826 20.4949 39.916 20.9963 37.9986L21.4129 36.7486L25.0783 36.8333L25.3289 37.9986C25.8302 39.9159 27.2463 41.5826 29.1636 42.3313C31.0809 43.08 33.1642 42.9986 34.9123 41.9146L36.0776 41.3319L38.6622 43.9979L38.0796 44.9972C36.9956 46.7486 36.9142 48.8319 37.6629 50.7459C38.4116 52.6632 40.0782 53.9946 41.9956 54.4959L43.2456 54.9126L43.2488 58.5844Z" fill="#003448"/>
<path fill-rule="evenodd" clip-rule="evenodd" d="M23.2487 45.1658C16.8327 45.1658 11.582 50.4165 11.582 56.8325C11.582 63.2485 16.8327 68.4992 23.2487 68.4992C29.6647 68.4992 34.9154 63.2485 34.9154 56.8325C34.9154 50.4165 29.6679 45.1658 23.2487 45.1658ZM23.2487 65.5825C18.4147 65.5825 14.4137 61.5818 14.4137 56.7475C14.4137 51.9135 18.4144 47.9125 23.2487 47.9125C28.0827 47.9125 32.0837 51.9132 32.0837 56.7475C32.0837 61.6661 28.083 65.5825 23.2487 65.5825Z" fill="#3F8FC1"/>
<path fill-rule="evenodd" clip-rule="evenodd" d="M13.0014 31.335C13.7501 31.335 14.4174 30.6677 14.4174 29.919V19.499C14.4174 17.8324 15.752 16.4977 17.4187 16.4977H26.917L24.0004 19.4144C23.4177 19.997 23.4177 20.8304 24.0004 21.413C24.251 21.6637 24.6677 21.8297 24.9997 21.8297C25.3317 21.8297 25.7484 21.6637 25.999 21.413L31.2497 16.1624C31.8324 15.5797 31.8324 14.7464 31.2497 14.1637L25.999 8.91303C25.4163 8.33034 24.583 8.33034 24.0004 8.91303C23.4177 9.49571 23.4177 10.329 24.0004 10.9117L26.917 13.8284L17.4154 13.8349C14.248 13.8349 11.582 16.4195 11.582 19.6682V30.0849C11.582 30.6676 12.2493 31.3349 13.0013 31.3349L13.0014 31.335Z" fill="#F27A76"/>
<path fill-rule="evenodd" clip-rule="evenodd" d="M68.8353 46.9175C68.0866 46.9175 67.4193 47.5848 67.4193 48.3335V58.7502C67.4193 60.4169 66.0847 61.7515 64.418 61.7515H54.9163L57.833 58.8349C58.4157 58.2522 58.4157 57.4189 57.833 56.8362C57.2503 56.2535 56.417 56.2535 55.8343 56.8362L50.5837 62.0869C50.333 62.3375 50.167 62.6695 50.167 63.0862C50.167 63.5028 50.333 63.8349 50.5837 64.0855L55.8343 69.3362C56.085 69.5868 56.5016 69.7529 56.8337 69.7529C57.1657 69.7529 57.5824 69.5868 57.833 69.3362C58.4157 68.7535 58.4157 67.9202 57.833 67.3375L54.9163 64.4209H64.4147C67.582 64.4209 70.248 61.8362 70.248 58.5875L70.2512 48.3334C70.1666 47.5 69.5839 46.9174 68.8352 46.9174L68.8353 46.9175Z" fill="#F27A76"/>
<path fill-rule="evenodd" clip-rule="evenodd" d="M58.5841 0.416687C47.0025 0.416687 37.585 9.83419 37.585 21.4159C37.585 32.9975 47.0025 42.415 58.5841 42.415C70.1658 42.415 79.5833 32.9975 79.5833 21.4159C79.5833 9.83419 70.1658 0.416687 58.5841 0.416687ZM73.6658 22.8317H76.6671C76.3351 26.8324 74.7498 30.4164 72.3345 33.2484L70.1665 31.0804C69.5838 30.4977 68.7505 30.4977 68.1678 31.0804C67.5851 31.663 67.5851 32.4964 68.1678 33.079L70.3358 35.247C67.5038 37.6624 63.8351 39.2477 59.9191 39.5797V36.5784C59.9191 35.8297 59.2518 35.1624 58.5031 35.1624C57.7544 35.1624 57.0871 35.8297 57.0871 36.5784V39.5797C53.0865 39.2477 49.5025 37.6624 46.6705 35.247L48.8385 33.079C49.4211 32.4963 49.4211 31.663 48.8385 31.0804C48.2558 30.4977 47.4225 30.4977 46.8398 31.0804L44.6718 33.2484C42.2565 30.4164 40.6711 26.7477 40.3391 22.8317H43.3405C44.0892 22.8317 44.7565 22.1644 44.7565 21.4157C44.75 20.667 44.2519 19.9997 43.5 19.9997H40.4986C40.8307 15.999 42.416 12.415 44.8313 9.58302L46.9993 11.751C47.2499 12.0017 47.6666 12.1677 47.9986 12.1677C48.3307 12.1677 48.7473 12.0017 48.998 11.751C49.5806 11.1683 49.5806 10.335 48.998 9.75235L46.83 7.58435C49.662 5.16902 53.3306 3.58369 57.2466 3.25169V6.25302C57.2466 7.00172 57.9139 7.66902 58.6626 7.66902C59.4113 7.66902 60.0786 7.0017 60.0786 6.25302L60.0851 3.24844C64.0858 3.58047 67.6698 5.16577 70.5018 7.5811L68.3338 9.7491C67.7511 10.3318 67.7511 11.1651 68.3338 11.7478C68.5845 11.9984 69.0011 12.1644 69.3331 12.1644C69.6652 12.1644 70.0818 11.9984 70.3325 11.7478L72.5005 9.57977C74.9158 12.4118 76.5011 16.0804 76.8331 19.9964H73.8318C73.0831 19.9964 72.4158 20.6638 72.4158 21.4124C72.4158 22.1676 72.9171 22.8317 73.6658 22.8317H73.6658Z" fill="#3F8FC1"/>
<path fill-rule="evenodd" clip-rule="evenodd" d="M66.084 20H60V12.5846C60 11.8359 59.3327 11.1686 58.584 11.1686C57.8353 11.1686 57.168 11.836 57.168 12.5846V21.4196C57.168 22.1683 57.8353 22.8356 58.584 22.8356H66.084C66.8327 22.8356 67.5 22.1683 67.5 21.4196C67.5 20.6677 66.9173 20.0004 66.084 20.0004V20Z" fill="#F27A76"/>
</svg>
