<svg width="80" height="81" viewBox="0 0 80 81" fill="none" xmlns="http://www.w3.org/2000/svg">
<path fill-rule="evenodd" clip-rule="evenodd" d="M72.687 77.203V13.406C72.687 12.547 71.984 11.844 71.124 11.844H46.64V1.562C46.64 0.703 45.937 0 45.077 0H9.405C8.546 0 7.843 0.703 7.843 1.562V77.204H1.563C0.703 77.204 0 77.907 0 78.766C0 79.626 0.703 80.329 1.563 80.329H78.4376C79.2966 80.329 79.9996 79.626 79.9996 78.766C79.9996 77.907 79.2966 77.204 78.4376 77.204L72.687 77.203ZM23.812 77.203H30.671V68.359H23.812V77.203ZM43.515 13.406V77.203H33.796V66.797C33.796 65.937 33.093 65.234 32.234 65.234H22.249C21.39 65.234 20.687 65.937 20.687 66.797V77.203H10.968V3.125H43.515V13.406ZM46.64 77.203H69.562V14.97H46.64V77.203Z" fill="#1A3F54"/>
<path fill-rule="evenodd" clip-rule="evenodd" d="M23.234 16.125C24.093 16.125 24.796 15.422 24.796 14.563C24.796 13.703 24.093 13 23.234 13H16.562C15.703 13 15 13.703 15 14.563C15 15.422 15.703 16.125 16.562 16.125H23.234Z" fill="#3E90C1"/>
<path fill-rule="evenodd" clip-rule="evenodd" d="M23.234 27.9841C24.093 27.9841 24.796 27.2811 24.796 26.4221C24.796 25.5621 24.093 24.8591 23.234 24.8591H16.562C15.703 24.8591 15 25.5621 15 26.4221C15 27.2811 15.703 27.9841 16.562 27.9841H23.234Z" fill="#3E90C1"/>
<path fill-rule="evenodd" clip-rule="evenodd" d="M23.234 40.9841C24.093 40.9841 24.796 40.2811 24.796 39.4221C24.796 38.5621 24.093 37.8591 23.234 37.8591H16.562C15.703 37.8591 15 38.5621 15 39.4221C15 40.2811 15.703 40.9841 16.562 40.9841H23.234Z" fill="#3E90C1"/>
<path fill-rule="evenodd" clip-rule="evenodd" d="M23.234 53.9841C24.093 53.9841 24.796 53.2811 24.796 52.4221C24.796 51.5621 24.093 50.8591 23.234 50.8591H16.562C15.703 50.8591 15 51.5621 15 52.4221C15 53.2811 15.703 53.9841 16.562 53.9841H23.234Z" fill="#3E90C1"/>
<path fill-rule="evenodd" clip-rule="evenodd" d="M37.9059 16.125C38.7649 16.125 39.4679 15.422 39.4679 14.563C39.4679 13.703 38.7649 13 37.9059 13H31.2339C30.3749 13 29.6719 13.703 29.6719 14.563C29.6719 15.422 30.3749 16.125 31.2339 16.125H37.9059Z" fill="#3E90C1"/>
<path fill-rule="evenodd" clip-rule="evenodd" d="M37.9059 27.9841C38.7649 27.9841 39.4679 27.2811 39.4679 26.4221C39.4679 25.5621 38.7649 24.8591 37.9059 24.8591H31.2339C30.3749 24.8591 29.6719 25.5621 29.6719 26.4221C29.6719 27.2811 30.3749 27.9841 31.2339 27.9841H37.9059Z" fill="#3E90C1"/>
<path fill-rule="evenodd" clip-rule="evenodd" d="M37.9059 40.9841C38.7649 40.9841 39.4679 40.2811 39.4679 39.4221C39.4679 38.5621 38.7649 37.8591 37.9059 37.8591H31.2339C30.3749 37.8591 29.6719 38.5621 29.6719 39.4221C29.6719 40.2811 30.3749 40.9841 31.2339 40.9841H37.9059Z" fill="#3E90C1"/>
<path fill-rule="evenodd" clip-rule="evenodd" d="M37.9059 53.9841C38.7649 53.9841 39.4679 53.2811 39.4679 52.4221C39.4679 51.5621 38.7649 50.8591 37.9059 50.8591H31.2339C30.3749 50.8591 29.6719 51.5621 29.6719 52.4221C29.6719 53.2811 30.3749 53.9841 31.2339 53.9841H37.9059Z" fill="#3E90C1"/>
<path fill-rule="evenodd" clip-rule="evenodd" d="M63.3589 28.125C64.2179 28.125 64.9219 27.422 64.9219 26.563C64.9219 25.703 64.2179 25 63.3589 25H52.8589C51.9999 25 51.2969 25.703 51.2969 26.563C51.2969 27.422 51.9839 28.125 52.8589 28.125H63.3589Z" fill="#F27A76"/>
<path fill-rule="evenodd" clip-rule="evenodd" d="M63.3589 41.125C64.2179 41.125 64.9219 40.422 64.9219 39.563C64.9219 38.703 64.2179 38 63.3589 38H52.8589C51.9999 38 51.2969 38.703 51.2969 39.563C51.2969 40.422 51.9839 41.125 52.8589 41.125H63.3589Z" fill="#F27A76"/>
<path fill-rule="evenodd" clip-rule="evenodd" d="M63.3589 54.125C64.2179 54.125 64.9219 53.422 64.9219 52.563C64.9219 51.703 64.2179 51 63.3589 51H52.8589C51.9999 51 51.2969 51.703 51.2969 52.563C51.2969 53.422 51.9839 54.125 52.8589 54.125H63.3589Z" fill="#F27A76"/>
<path d="M52.7969 78.5V78.4903V78.4656V78.4409V78.4159V78.3909V78.3656V78.3402V78.3147V78.289V78.2631V78.2371V78.211V78.1847V78.1582V78.1317V78.1049V78.0781V78.051V78.0239V77.9966V77.9691V77.9416V77.9138V77.886V77.858V77.8299V77.8016V77.7732V77.7447V77.7161V77.6873V77.6584V77.6293V77.6002V77.5709V77.5415V77.512V77.4823V77.4525V77.4226V77.3926V77.3625V77.3322V77.3019V77.2714V77.2408V77.2101V77.1793V77.1483V77.1173V77.0862V77.0549V77.0235V76.9921V76.9605V76.9288V76.897V76.8652V76.8332V76.8011V76.7689V76.7366V76.7043V76.6718V76.6392V76.6066V76.5738V76.541V76.5081V76.4751V76.442V76.4088V76.3755V76.3421V76.3087V76.2751V76.2415V76.2078V76.1741V76.1402V76.1063V76.0723V76.0382V76.004V75.9698V75.9355V75.9011V75.8667V75.8322V75.7976V75.7629V75.7282V75.6934V75.6586V75.6237V75.5887V75.5536V75.5185V75.4834V75.4482V75.4129V75.3776V75.3422V75.3068V75.2713V75.2357V75.2001V75.1645V75.1288V75.093V75.0573V75.0214V74.9855V74.9496V74.9137V74.8776V74.8416V74.8055V74.7694V74.7332V74.697V74.6608V74.6245V74.5882V74.5519V74.5155V74.4791V74.4427V74.4062V74.3697V74.3332V74.2967V74.2601V74.2235V74.1869V74.1503V74.1136V74.0769V74.0403V74.0036V73.9668V73.9301V73.8933V73.8566V73.8198V73.783V73.7462V73.7094V73.6726V73.6358V73.599V73.5621V73.5253V73.4885V73.4516V73.4148V73.3779V73.3411V73.3043V73.2674V73.2306V73.1938V73.1569V73.1201V73.0833V73.0465V73.0098V72.973V72.9362V72.8995V72.8628V72.826V72.7894V72.7527V72.716V72.6794V72.6428V72.6062V72.5696V72.533V72.4965V72.46V72.4235V72.3871V72.3507V72.3143V72.2779V72.2416V72.2053V72.1691V72.1328V72.0966V72.0605V72.0244V71.9883V71.9523V71.9163V71.8804V71.8445V71.8086V71.7728V71.737V71.7013V71.6656V71.63V71.5944V71.5589V71.5235V71.488V71.4527V71.4174V71.3821V71.347V71.3118V71.2768V71.2418V71.2068V71.1719V71.1371V71.1024V71.0677V71.0331V70.9985V70.964V70.9296V70.8953V70.861V70.8268V70.7927V70.7586V70.7247V70.6908V70.657V70.6232V70.5896V70.556V70.5225V70.4891V70.4558V70.4225V70.3894V70.3563V70.3233V70.2905V70.2577V70.225V70.1924V70.1598V70.1274V70.0951V70.0629V70.0307V69.9987V69.9668V69.9349V69.9032V69.8716V69.8401V69.8086V69.7773V69.7461V69.715V69.684V69.6532V69.6224V69.5918V69.5612V69.5308V69.5005V69.4703V69.4402V69.4103V69.3804V69.3507V69.3211V69.2916V69.2623V69.2331V69.204V69.175V69.1461V69.1174V69.0888V69.0604V69.0321V69.0039V68.9758V68.9479V68.9201V68.8925V68.8649V68.8376V68.8103V68.7832V68.7563V68.7295V68.7028V68.6763V68.6499V68.6237V68.5976V68.5717V68.5459V68.5203V68.4948V68.4695V68.4444V68.4194V68.3945V68.3698V68.3453V68.3209V68.2967V68.2726V68.2487V68.225V68.2014V68.178V68.1548V68.1317V68.1088V68.0861V68.0636V68.0412V68.019V67.9969V67.9751V67.9534V67.9319V67.9106V67.8894V67.8684V67.8477V67.827V67.8066V67.7864V67.7663V67.7465V67.7268V67.7073V67.688V67.6689V67.65V67.6312V67.6127V67.5943V67.5762V67.5583V67.5405V67.5229V67.5056V67.4884V67.4715V67.4547V67.4382V67.4219V67.4057V67.3898V67.3741V67.3586V67.3433V67.3282V67.3133V67.2986V67.2842V67.27V67.2559V67.2421V67.2286V67.2152V67.202V67.1891V67.1764V67.1639V67.1517V67.1397V67.1279V67.1163V67.1049V67.0938V67.0829V67.0723V67.0619V67.0517V67.0417V67.032V67.0225V67.0133V67.0043V66.9955V66.987V66.9787V66.9706V66.9629V66.9553V66.948V66.9409V66.9341V66.9276V66.9212C52.7969 66.7185 52.8655 66.577 52.9195 66.5106C52.9228 66.5066 52.9257 66.5031 52.9285 66.5H63.2898C63.2926 66.5032 63.2957 66.5069 63.2991 66.5111C63.3533 66.5777 63.4219 66.7191 63.4219 66.9212V66.9276V66.9341V66.9409V66.948V66.9553V66.9629V66.9706V66.9787V66.987V66.9955V67.0043V67.0133V67.0225V67.032V67.0417V67.0517V67.0619V67.0723V67.0829V67.0938V67.1049V67.1163V67.1279V67.1397V67.1517V67.1639V67.1764V67.1891V67.202V67.2152V67.2286V67.2421V67.2559V67.27V67.2842V67.2986V67.3133V67.3282V67.3433V67.3586V67.3741V67.3898V67.4057V67.4219V67.4382V67.4547V67.4715V67.4884V67.5056V67.5229V67.5405V67.5583V67.5762V67.5943V67.6127V67.6312V67.65V67.6689V67.688V67.7073V67.7268V67.7465V67.7663V67.7864V67.8066V67.827V67.8477V67.8684V67.8894V67.9106V67.9319V67.9534V67.9751V67.9969V68.019V68.0412V68.0636V68.0861V68.1088V68.1317V68.1548V68.178V68.2014V68.225V68.2487V68.2726V68.2967V68.3209V68.3453V68.3698V68.3945V68.4194V68.4444V68.4695V68.4948V68.5203V68.5459V68.5717V68.5976V68.6237V68.6499V68.6763V68.7028V68.7295V68.7563V68.7832V68.8103V68.8376V68.8649V68.8925V68.9201V68.9479V68.9758V69.0039V69.0321V69.0604V69.0888V69.1174V69.1461V69.175V69.204V69.2331V69.2623V69.2916V69.3211V69.3507V69.3804V69.4103V69.4402V69.4703V69.5005V69.5308V69.5612V69.5918V69.6224V69.6532V69.684V69.715V69.7461V69.7773V69.8086V69.8401V69.8716V69.9032V69.9349V69.9668V69.9987V70.0307V70.0629V70.0951V70.1274V70.1598V70.1924V70.225V70.2577V70.2905V70.3233V70.3563V70.3894V70.4225V70.4558V70.4891V70.5225V70.556V70.5896V70.6232V70.657V70.6908V70.7247V70.7586V70.7927V70.8268V70.861V70.8953V70.9296V70.964V70.9985V71.0331V71.0677V71.1024V71.1371V71.1719V71.2068V71.2418V71.2768V71.3118V71.347V71.3821V71.4174V71.4527V71.488V71.5235V71.5589V71.5944V71.63V71.6656V71.7013V71.737V71.7728V71.8086V71.8445V71.8804V71.9163V71.9523V71.9883V72.0244V72.0605V72.0966V72.1328V72.1691V72.2053V72.2416V72.2779V72.3143V72.3507V72.3871V72.4235V72.46V72.4965V72.533V72.5696V72.6062V72.6428V72.6794V72.716V72.7527V72.7894V72.826V72.8628V72.8995V72.9362V72.973V73.0098V73.0465V73.0833V73.1201V73.1569V73.1938V73.2306V73.2674V73.3043V73.3411V73.3779V73.4148V73.4516V73.4885V73.5253V73.5621V73.599V73.6358V73.6726V73.7094V73.7462V73.783V73.8198V73.8566V73.8933V73.9301V73.9668V74.0036V74.0403V74.0769V74.1136V74.1503V74.1869V74.2235V74.2601V74.2967V74.3332V74.3697V74.4062V74.4427V74.4791V74.5155V74.5519V74.5882V74.6245V74.6608V74.697V74.7332V74.7694V74.8055V74.8416V74.8776V74.9137V74.9496V74.9855V75.0214V75.0573V75.093V75.1288V75.1645V75.2001V75.2357V75.2713V75.3068V75.3422V75.3776V75.4129V75.4482V75.4834V75.5185V75.5536V75.5887V75.6237V75.6586V75.6934V75.7282V75.7629V75.7976V75.8322V75.8667V75.9011V75.9355V75.9698V76.004V76.0382V76.0723V76.1063V76.1402V76.1741V76.2078V76.2415V76.2751V76.3087V76.3421V76.3755V76.4088V76.442V76.4751V76.5081V76.541V76.5738V76.6066V76.6392V76.6718V76.7043V76.7366V76.7689V76.8011V76.8332V76.8652V76.897V76.9288V76.9605V76.9921V77.0235V77.0549V77.0862V77.1173V77.1483V77.1793V77.2101V77.2408V77.2714V77.3019V77.3322V77.3625V77.3926V77.4226V77.4525V77.4823V77.512V77.5415V77.5709V77.6002V77.6293V77.6584V77.6873V77.7161V77.7447V77.7732V77.8016V77.8299V77.858V77.886V77.9138V77.9416V77.9691V77.9966V78.0239V78.051V78.0781V78.1049V78.1317V78.1582V78.1847V78.211V78.2371V78.2631V78.289V78.3147V78.3402V78.3656V78.3909V78.4159V78.4409V78.4656V78.4903V78.5H52.7969ZM63.2681 66.4791C63.2681 66.479 63.2689 66.4795 63.2704 66.4807C63.2689 66.4797 63.2681 66.4791 63.2681 66.4791ZM52.9502 66.4788C52.9502 66.4789 52.9495 66.4795 52.948 66.4804C52.9494 66.4793 52.9502 66.4788 52.9502 66.4788Z" stroke="#1A3F54" stroke-width="3"/>
</svg>
