<svg width="80" height="80" viewBox="0 0 80 80" fill="none" xmlns="http://www.w3.org/2000/svg">
<path fill-rule="evenodd" clip-rule="evenodd" d="M30.7793 37C30.7793 36.4 31.1993 36 31.8293 36H78.9497C79.5797 36 79.9997 36.4 79.9997 37C79.9997 37.6 79.5797 38 78.9497 38H31.8293C31.1993 38 30.7793 37.6 30.7793 37ZM30.7793 43C30.7793 42.4 31.2079 42 31.8507 42H72.9283C73.5712 42 73.9997 42.4 73.9997 43C73.9997 43.6 73.5712 44 72.9283 44H31.8507C31.2079 44 30.7793 43.6 30.7793 43Z" fill="#3F8FC1"/>
<path fill-rule="evenodd" clip-rule="evenodd" d="M30.7793 7C30.7793 6.4 31.1993 6 31.8293 6H78.9497C79.5797 6 79.9997 6.4 79.9997 7C79.9997 7.6 79.5797 8 78.9497 8H31.8293C31.1993 8 30.7793 7.6 30.7793 7ZM30.7793 13C30.7793 12.4 31.2079 12 31.8507 12H72.9283C73.5712 12 73.9997 12.4 73.9997 13C73.9997 13.6 73.5712 14 72.9283 14H31.8507C31.2079 14 30.7793 13.6 30.7793 13Z" fill="#1A3F54"/>
<path fill-rule="evenodd" clip-rule="evenodd" d="M30.7793 67C30.7793 66.4 31.1993 66 31.8293 66H78.9497C79.5797 66 79.9997 66.4 79.9997 67C79.9997 67.6 79.5797 68 78.9497 68H31.8293C31.1993 68 30.7793 67.6 30.7793 67ZM30.7793 73C30.7793 72.4 31.2079 72 31.8507 72H72.9283C73.5712 72 73.9997 72.4 73.9997 73C73.9997 73.6 73.5712 74 72.9283 74H31.8507C31.2079 74 30.7793 73.6 30.7793 73Z" fill="#1A3F54"/>
<path d="M11 1C5.49772 1 1 5.49772 1 11C1 16.5023 5.49772 21 11 21C16.5023 21 21 16.5023 21 11C21 5.49772 16.5023 1 11 1Z" stroke="#3F8FC1" stroke-width="2"/>
<path d="M11 30C5.49772 30 1 34.4977 1 40C1 45.5023 5.49772 50 11 50C16.5023 50 21 45.5023 21 40C21 34.4977 16.5023 30 11 30Z" stroke="#F27A76" stroke-width="2"/>
<path d="M11 59C5.49772 59 1 63.4977 1 69C1 74.5023 5.49772 79 11 79C16.5023 79 21 74.5023 21 69C21 63.4977 16.5023 59 11 59Z" stroke="#3F8FC1" stroke-width="2"/>
<path fill-rule="evenodd" clip-rule="evenodd" d="M7 8C7 8.26499 7.105 8.51999 7.29249 8.70751C7.47999 8.895 7.73499 9 8 9C8.26499 9 8.51748 8.895 8.70501 8.70751C8.89253 8.52001 9 8.26501 9 8C9 7.73499 8.8925 7.48001 8.70501 7.29249C8.51751 7.10498 8.26501 7 8 7C7.44749 7.00002 7 7.44751 7 8ZM13 8C13 8.26499 13.105 8.51999 13.2925 8.70751C13.48 8.895 13.735 9 14 9C14.265 9 14.5175 8.895 14.705 8.70751C14.8925 8.52001 15 8.26501 15 8C15 7.73499 14.8925 7.48001 14.705 7.29249C14.5175 7.10498 14.265 7 14 7C13.4475 7.00002 13 7.44751 13 8ZM7.3871 13.3101C7.64513 13.1034 7.96448 13.0052 8.28706 13.0052C8.60967 13.0052 8.9387 13.1034 9.19677 13.3101C10.229 14.137 11.771 14.137 12.8032 13.3101C13.3194 12.8966 14.0968 12.8966 14.6129 13.3101C15.129 13.7235 15.129 14.3463 14.6129 14.7597C13.5806 15.5866 12.2903 16 11 16C9.70968 16 8.41935 15.5866 7.3871 14.7597C6.87097 14.3463 6.87097 13.7235 7.3871 13.3101Z" fill="#3F8FC1"/>
<path fill-rule="evenodd" clip-rule="evenodd" d="M7 37C7 37.265 7.105 37.52 7.29249 37.7075C7.47999 37.895 7.73499 38 8 38C8.26499 38 8.51748 37.895 8.70501 37.7075C8.89253 37.52 9 37.265 9 37C9 36.735 8.8925 36.48 8.70501 36.2925C8.51751 36.105 8.26501 36 8 36C7.44749 36 7 36.4475 7 37ZM13 37C13 37.265 13.105 37.52 13.2925 37.7075C13.48 37.895 13.735 38 14 38C14.265 38 14.5175 37.895 14.705 37.7075C14.8925 37.52 15 37.265 15 37C15 36.735 14.8925 36.48 14.705 36.2925C14.5175 36.105 14.265 36 14 36C13.4475 36 13 36.4475 13 37ZM7.3871 42.3101C7.64513 42.1034 7.96448 42.0052 8.28706 42.0052C8.60967 42.0052 8.9387 42.1034 9.19677 42.3101C10.229 43.137 11.771 43.137 12.8032 42.3101C13.3194 41.8966 14.0968 41.8966 14.6129 42.3101C15.129 42.7235 15.129 43.3463 14.6129 43.7597C13.5806 44.5866 12.2903 45 11 45C9.70968 45 8.41935 44.5866 7.3871 43.7597C6.87097 43.3463 6.87097 42.7235 7.3871 42.3101Z" fill="#F27A76"/>
<path fill-rule="evenodd" clip-rule="evenodd" d="M7 66C7 66.265 7.105 66.52 7.29249 66.7075C7.47999 66.895 7.73499 67 8 67C8.26499 67 8.51748 66.895 8.70501 66.7075C8.89253 66.52 9 66.265 9 66C9 65.735 8.8925 65.48 8.70501 65.2925C8.51751 65.105 8.26501 65 8 65C7.44749 65 7 65.4475 7 66ZM13 66C13 66.265 13.105 66.52 13.2925 66.7075C13.48 66.895 13.735 67 14 67C14.265 67 14.5175 66.895 14.705 66.7075C14.8925 66.52 15 66.265 15 66C15 65.735 14.8925 65.48 14.705 65.2925C14.5175 65.105 14.265 65 14 65C13.4475 65 13 65.4475 13 66ZM7.3871 71.3101C7.64513 71.1034 7.96448 71.0052 8.28706 71.0052C8.60967 71.0052 8.9387 71.1034 9.19677 71.3101C10.229 72.137 11.771 72.137 12.8032 71.3101C13.3194 70.8966 14.0968 70.8966 14.6129 71.3101C15.129 71.7235 15.129 72.3463 14.6129 72.7597C13.5806 73.5866 12.2903 74 11 74C9.70968 74 8.41935 73.5866 7.3871 72.7597C6.87097 72.3463 6.87097 71.7235 7.3871 71.3101Z" fill="#3F8FC1"/>
</svg>
